<svg width="400" height="400" viewBox="0 0 400 400" fill="none" xmlns="http://www.w3.org/2000/svg">
<g clip-path="url(#clip0_2207_110)">
<path fill-rule="evenodd" clip-rule="evenodd" d="M200.004 8.33334C152.525 8.35798 106.602 25.1743 70.4479 55.7754C34.2935 86.3765 10.2651 128.767 2.65912 175.367C-4.94686 221.966 4.36549 269.737 28.9312 310.136C53.4969 350.536 91.714 380.929 136.749 395.883C146.684 397.727 150.427 391.569 150.427 386.333C150.427 381.097 150.228 365.917 150.162 349.32C94.5233 361.34 82.7665 325.841 82.7665 325.841C73.6921 302.791 60.5773 296.732 60.5773 296.732C42.4286 284.416 61.9353 284.646 61.9353 284.646C82.0379 286.062 92.6026 305.162 92.6026 305.162C110.42 335.556 139.398 326.763 150.791 321.626C152.579 308.751 157.779 299.992 163.508 295.019C119.064 290.014 72.3673 272.956 72.3673 196.757C72.0919 176.995 79.4671 157.884 92.9669 143.378C90.9136 138.373 84.058 118.154 94.9207 90.6905C94.9207 90.6905 111.712 85.3559 149.93 111.074C182.711 102.16 217.298 102.16 250.079 111.074C288.264 85.3559 305.022 90.6905 305.022 90.6905C315.918 118.088 309.062 138.307 307.009 143.378C320.551 157.887 327.942 177.031 327.641 196.823C327.641 273.187 280.846 290.014 236.335 294.92C243.488 301.111 249.88 313.196 249.88 331.769C249.88 358.376 249.648 379.78 249.648 386.333C249.648 391.635 253.258 397.826 263.392 395.883C308.433 380.928 346.653 350.528 371.219 310.122C395.784 269.716 405.091 221.938 397.477 175.334C389.862 128.73 365.822 86.3392 329.656 55.7434C293.489 25.1476 247.556 8.34236 200.071 8.33334H200.004Z" fill="white"/>
<path d="M133.797 332.921C133.797 334.535 131.943 335.918 129.558 335.951C127.174 335.984 125.22 334.666 125.22 333.053C125.22 331.439 127.074 330.056 129.459 330.023C131.843 329.99 133.797 331.275 133.797 332.921Z" fill="white"/>
<path d="M149.032 330.386C149.33 331.999 147.674 333.679 145.289 334.074C142.905 334.469 140.818 333.514 140.52 331.933C140.222 330.353 141.944 328.64 144.263 328.212C146.581 327.784 148.733 328.772 149.032 330.386Z" fill="white"/>
<path d="M117.436 331.802C116.939 333.349 114.687 334.041 112.435 333.382C110.183 332.724 108.693 330.879 109.124 329.299C109.554 327.718 111.839 326.994 114.124 327.718C116.41 328.443 117.867 330.188 117.436 331.802Z" fill="white"/>
<path d="M102.434 325.347C101.341 326.566 99.1225 326.236 97.301 324.59C95.4795 322.943 95.0488 320.704 96.1417 319.519C97.2346 318.333 99.4536 318.663 101.341 320.276C103.229 321.89 103.593 324.162 102.434 325.347V325.347Z" fill="white"/>
<path d="M91.7374 314.283C90.512 315.139 88.4255 314.283 87.2663 312.571C86.9458 312.264 86.6909 311.895 86.5168 311.488C86.3427 311.08 86.2528 310.642 86.2528 310.2C86.2528 309.757 86.3427 309.319 86.5168 308.912C86.6909 308.504 86.9458 308.136 87.2663 307.829C88.4917 307.006 90.5782 307.829 91.7374 309.508C92.8965 311.188 92.9296 313.427 91.7374 314.283V314.283Z" fill="white"/>
<path d="M83.8549 302.856C83.169 303.2 82.3843 303.296 81.6352 303.128C80.8861 302.96 80.2191 302.538 79.7483 301.934C78.4567 300.551 78.1916 298.642 79.1851 297.785C80.1787 296.929 81.9672 297.324 83.2588 298.707C84.5504 300.09 84.8484 302 83.8549 302.856Z" fill="white"/>
<path d="M75.7406 293.867C75.3101 294.855 73.7204 295.151 72.4288 294.459C71.1372 293.768 70.1769 292.484 70.6405 291.463C71.1042 290.442 72.6607 290.179 73.9523 290.87C75.2439 291.562 76.2374 292.879 75.7406 293.867Z" fill="white"/>
</g>
<defs>
<clipPath id="clip0_2207_110">
<rect width="400" height="400" fill="white"/>
</clipPath>
</defs>
</svg>
