<svg width="400" height="400" viewBox="0 0 400 400" fill="none" xmlns="http://www.w3.org/2000/svg">
<path d="M370.391 0H29.5312C13.2031 0 0 12.8906 0 28.8281V371.094C0 387.031 13.2031 400 29.5312 400H370.391C386.719 400 400 387.031 400 371.172V28.8281C400 12.8906 386.719 0 370.391 0ZM118.672 340.859H59.2969V149.922H118.672V340.859ZM88.9844 123.906C69.9219 123.906 54.5313 108.516 54.5313 89.5312C54.5313 70.5469 69.9219 55.1562 88.9844 55.1562C107.969 55.1562 123.359 70.5469 123.359 89.5312C123.359 108.437 107.969 123.906 88.9844 123.906ZM340.859 340.859H281.562V248.047C281.562 225.937 281.172 197.422 250.703 197.422C219.844 197.422 215.156 221.562 215.156 246.484V340.859H155.938V149.922H212.812V176.016H213.594C221.484 161.016 240.859 145.156 269.688 145.156C329.766 145.156 340.859 184.688 340.859 236.094V340.859V340.859Z" fill="white"/>
</svg>
