<svg width="400" height="281" viewBox="0 0 400 281" fill="none" xmlns="http://www.w3.org/2000/svg">
<path d="M396.016 60.6323C396.016 60.6323 392.109 33.0864 380.078 20.9911C364.844 5.0722 347.813 4.99417 340 4.05776C284.063 -2.23257e-06 200.078 0 200.078 0H199.922C199.922 0 115.937 -2.23257e-06 60 4.05776C52.1875 4.99417 35.1562 5.0722 19.9219 20.9911C7.89063 33.0864 4.0625 60.6323 4.0625 60.6323C4.0625 60.6323 0 93.0164 0 125.322V155.6C0 187.906 3.98437 220.29 3.98437 220.29C3.98437 220.29 7.89062 247.836 19.8437 259.931C35.0781 275.85 55.0781 275.304 63.9844 277.02C96.0156 280.064 200 281 200 281C200 281 284.063 280.844 340 276.864C347.813 275.928 364.844 275.85 380.078 259.931C392.109 247.836 396.016 220.29 396.016 220.29C396.016 220.29 400 187.984 400 155.6V125.322C400 93.0164 396.016 60.6323 396.016 60.6323ZM158.672 192.353V80.0628L266.719 136.403L158.672 192.353Z" fill="white"/>
</svg>
